<?xml version="1.0" encoding="UTF-8" standalone="no"?> <svg xmlns="http://www.w3.org/2000/svg" xmlns:xlink="http://www.w3.org/1999/xlink" xmlns:serif="http://www.serif.com/" width="100%" height="100%" viewBox="0 0 800 300" version="1.1" xml:space="preserve" style="fill-rule:evenodd;clip-rule:evenodd;stroke-linejoin:round;stroke-miterlimit:2;"> <g transform="matrix(1,0,0,1,0,-430)"> <g id="Logo-claro-transparente" serif:id="Logo claro transparente" transform="matrix(0.740741,0,0,0.277595,0,430)"> <rect x="0" y="0" width="1080" height="1080.71" style="fill:none;"></rect> <g id="Capa-1" serif:id="Capa 1" transform="matrix(1.35,0,0,3.60237,-192.649,-1408.49)"> <g transform="matrix(1,0,0,1,478.093,582.122)"> <path d="M0,-83.692L-11.618,-83.692L-11.618,-83.653C-12.013,-83.678 -12.454,-83.692 -12.957,-83.692C-25.867,-83.692 -32.781,-75.18 -32.781,-62.212L-32.781,-55.357L-43.12,-55.357L-43.12,-42.103L-32.781,-42.103L-32.781,0L-17.87,0L-17.87,-42.103L-0.676,-42.103L-0.676,-55.357L-17.87,-55.357L-17.87,-62.041C-17.87,-67.172 -15.75,-69.738 -11.521,-69.803L-2.636,-69.803C-2.854,-70.966 -2.971,-72.171 -2.971,-73.413C-2.971,-77.24 -1.887,-80.765 0,-83.692" style="fill:rgb(45,45,45);fill-rule:nonzero;"></path> </g> <g transform="matrix(1,0,0,1,2.7032,27.8959)"> <rect x="483.396" y="498.869" width="14.91" height="55.356" style="fill:rgb(45,45,45);"></rect> </g> <g transform="matrix(1,0,0,1,564.832,560.527)"> <path d="M0,-13.652L0,21.595L-14.909,21.595L-14.909,-8.854C-14.909,-16.909 -18.852,-21.25 -25.707,-21.25C-32.105,-21.25 -37.418,-17.137 -37.418,-8.74L-37.418,21.595L-52.328,21.595L-52.328,-33.761L-37.817,-33.761L-37.817,-27.249C-33.876,-33.133 -27.877,-35.247 -21.536,-35.247C-8.969,-35.247 0,-26.506 0,-13.652" style="fill:rgb(45,45,45);fill-rule:nonzero;"></path> </g> <g transform="matrix(1,0,0,1,598.568,571.21)"> <path d="M0,-33.534C-5.712,-33.534 -8.512,-31.534 -8.512,-28.507C-8.512,-25.251 -4.513,-24.508 0.515,-23.764L5.428,-23.022C17.481,-21.194 24.108,-15.882 24.108,-6.456C24.108,4.97 14.739,12.339 -1.313,12.339C-8.854,12.339 -18.737,10.854 -25.936,5.827L-20.052,-5.484C-15.366,-2.343 -9.483,-0.057 -1.199,-0.057C5.713,-0.057 9.026,-2 9.026,-5.256C9.026,-7.941 6.284,-9.426 -0.171,-10.341L-4.684,-10.969C-17.424,-12.739 -23.821,-18.338 -23.821,-27.764C-23.821,-39.133 -15.024,-45.873 -0.457,-45.873C8.341,-45.873 15.424,-44.274 22.68,-40.617L17.652,-29.021C13.253,-31.135 6.228,-33.534 0,-33.534" style="fill:rgb(45,45,45);fill-rule:nonzero;"></path> </g> <g transform="matrix(1,0,0,1,720.624,560.527)"> <path d="M0,-13.652L0,21.595L-14.853,21.595L-14.853,-8.854C-14.853,-16.909 -18.852,-21.25 -25.649,-21.25C-32.049,-21.25 -37.36,-17.137 -37.36,-8.74L-37.36,21.595L-52.271,21.595L-52.271,-8.854C-52.271,-16.909 -56.214,-21.25 -63.068,-21.25C-69.466,-21.25 -74.78,-17.137 -74.78,-8.74L-74.78,21.595L-89.689,21.595L-89.689,-33.761L-75.18,-33.761L-75.18,-27.249C-71.238,-33.133 -65.239,-35.247 -58.898,-35.247C-50.843,-35.247 -44.331,-31.705 -40.617,-25.763C-36.332,-32.848 -29.078,-35.247 -21.823,-35.247C-8.798,-35.247 0,-26.506 0,-13.652" style="fill:rgb(45,45,45);fill-rule:nonzero;"></path> </g> <g transform="matrix(1,0,0,1,741.538,554.415)"> <path d="M0,0C0,8.455 5.541,15.253 14.282,15.253C22.794,15.253 28.563,8.741 28.563,0C28.563,-8.74 22.794,-15.253 14.282,-15.253C5.541,-15.253 0,-8.455 0,0M28.106,27.707L28.106,21.594C24.451,26.107 19.138,29.135 11.54,29.135C-3.771,29.135 -15.253,16.624 -15.253,0C-15.253,-16.624 -3.771,-29.135 11.54,-29.135C19.138,-29.135 24.451,-26.107 28.106,-21.537L28.106,-27.649L42.674,-27.649L42.674,27.707L28.106,27.707Z" style="fill:rgb(45,45,45);fill-rule:nonzero;"></path> </g> <g transform="matrix(1,0,0,1,834.822,580.922)"> <path d="M0,-54.442L-2.229,-39.646C-4.685,-40.732 -8.226,-41.418 -11.255,-41.418C-18.109,-41.418 -22.907,-37.19 -22.907,-28.963L-22.907,1.2L-37.818,1.2L-37.818,-54.156L-23.364,-54.156L-23.364,-48.101C-19.88,-53.357 -14.625,-55.642 -7.769,-55.642C-4.57,-55.642 -2.056,-55.184 0,-54.442" style="fill:rgb(45,45,45);fill-rule:nonzero;"></path> </g> <g transform="matrix(1,0,0,1,883.435,553.844)"> <path d="M0,-13.825L0,-27.078L-20.053,-27.078L-20.053,-43.531L-34.962,-43.531L-34.962,-27.078L-45.645,-27.078L-45.645,-13.825L-34.962,-13.825L-34.962,7.597C-34.962,21.994 -27.993,29.706 -14.225,29.706L0,29.706L0,15.843L-11.676,15.827L-11.676,15.831C-11.707,15.83 -11.737,15.824 -11.769,15.824C-16.339,15.824 -20.053,13.254 -20.053,6.398L-20.053,-13.825L0,-13.825Z" style="fill:rgb(45,45,45);fill-rule:nonzero;"></path> </g> <g transform="matrix(0,-1,-1,0,493.554,499.087)"> <path d="M-9.569,-9.455C-14.939,-9.455 -19.052,-5.226 -19.052,0.086C-19.052,5.456 -14.939,9.569 -9.569,9.569C-4.199,9.569 0.028,5.456 0.028,0.086C0.028,-5.226 -4.199,-9.455 -9.569,-9.455" style="fill:rgb(45,45,45);fill-rule:nonzero;"></path> </g> <g transform="matrix(209.657,0,0,-209.657,190.139,540.99)"> <path d="M0.239,0.259C0.13,0.22 0.056,0.116 0.056,0C0.056,-0.116 0.13,-0.22 0.239,-0.259C0.278,-0.368 0.382,-0.442 0.498,-0.442C0.614,-0.442 0.718,-0.368 0.757,-0.259C0.867,-0.22 0.94,-0.116 0.94,0C0.94,0.116 0.867,0.22 0.757,0.259C0.718,0.368 0.614,0.442 0.498,0.442C0.382,0.442 0.278,0.368 0.239,0.259ZM0.498,0.425C0.604,0.425 0.697,0.363 0.737,0.265C0.714,0.272 0.69,0.275 0.665,0.275C0.604,0.275 0.546,0.256 0.498,0.219L0.498,0.219L0.498,0.219C0.45,0.256 0.392,0.275 0.331,0.275C0.307,0.275 0.283,0.272 0.259,0.265C0.299,0.363 0.393,0.425 0.498,0.425ZM0.59,0.092C0.575,0.137 0.547,0.177 0.511,0.208C0.556,0.241 0.609,0.259 0.665,0.259C0.692,0.259 0.719,0.254 0.744,0.246C0.753,0.22 0.757,0.194 0.757,0.167C0.757,0.111 0.739,0.058 0.706,0.013C0.675,0.049 0.635,0.076 0.59,0.092ZM0.24,0.167C0.24,0.194 0.244,0.22 0.252,0.246C0.278,0.254 0.304,0.259 0.331,0.259C0.387,0.259 0.44,0.241 0.485,0.208C0.449,0.177 0.422,0.137 0.406,0.092C0.361,0.076 0.321,0.049 0.29,0.013C0.257,0.058 0.24,0.111 0.24,0.167ZM0.773,-0.167C0.773,-0.107 0.753,-0.048 0.717,0L0.717,0L0.717,0C0.754,0.048 0.773,0.106 0.773,0.167C0.773,0.191 0.77,0.216 0.764,0.239C0.861,0.199 0.924,0.106 0.924,0C0.924,-0.106 0.861,-0.199 0.764,-0.239C0.77,-0.216 0.773,-0.191 0.773,-0.167ZM0.073,0C0.073,0.106 0.136,0.199 0.233,0.239C0.226,0.216 0.223,0.191 0.223,0.167C0.223,0.107 0.243,0.048 0.28,0L0.279,0L0.28,0C0.243,-0.048 0.223,-0.106 0.223,-0.167C0.223,-0.191 0.226,-0.216 0.233,-0.239C0.136,-0.199 0.073,-0.106 0.073,0ZM0.498,0.198C0.53,0.171 0.555,0.137 0.571,0.099C0.547,0.105 0.523,0.108 0.498,0.108C0.474,0.108 0.449,0.105 0.426,0.099C0.442,0.137 0.467,0.171 0.498,0.198ZM0.419,-0.079C0.411,-0.054 0.406,-0.027 0.406,0C0.406,0.027 0.411,0.054 0.419,0.079C0.444,0.088 0.471,0.092 0.498,0.092C0.525,0.092 0.552,0.088 0.578,0.079C0.586,0.054 0.59,0.027 0.59,0C0.59,-0.027 0.586,-0.054 0.578,-0.079C0.552,-0.088 0.525,-0.092 0.498,-0.092C0.471,-0.092 0.445,-0.088 0.419,-0.079ZM0.606,0C0.606,0.025 0.603,0.049 0.597,0.072C0.635,0.057 0.669,0.032 0.696,0C0.669,-0.032 0.635,-0.057 0.597,-0.072C0.603,-0.049 0.606,-0.025 0.606,0ZM0.301,0C0.327,0.032 0.362,0.057 0.4,0.072C0.393,0.049 0.39,0.025 0.39,0C0.39,-0.025 0.393,-0.049 0.4,-0.072C0.362,-0.057 0.327,-0.032 0.301,0ZM0.511,-0.208C0.547,-0.177 0.575,-0.137 0.59,-0.092C0.635,-0.076 0.675,-0.049 0.706,-0.013C0.739,-0.058 0.757,-0.111 0.757,-0.167C0.757,-0.194 0.753,-0.22 0.744,-0.246C0.719,-0.254 0.692,-0.259 0.665,-0.259C0.609,-0.259 0.556,-0.241 0.511,-0.208ZM0.252,-0.246C0.244,-0.22 0.24,-0.194 0.24,-0.167C0.24,-0.111 0.257,-0.058 0.29,-0.013C0.321,-0.049 0.361,-0.076 0.406,-0.092C0.422,-0.137 0.449,-0.177 0.485,-0.208C0.44,-0.241 0.387,-0.259 0.331,-0.259C0.304,-0.259 0.278,-0.254 0.252,-0.246ZM0.571,-0.099C0.555,-0.137 0.53,-0.171 0.498,-0.198C0.467,-0.171 0.442,-0.137 0.426,-0.099C0.449,-0.105 0.474,-0.108 0.498,-0.108C0.523,-0.108 0.547,-0.105 0.571,-0.099ZM0.498,-0.219L0.498,-0.219L0.498,-0.219C0.546,-0.255 0.605,-0.275 0.665,-0.275C0.69,-0.275 0.714,-0.272 0.737,-0.265C0.697,-0.363 0.604,-0.425 0.498,-0.425C0.393,-0.425 0.299,-0.363 0.259,-0.265C0.283,-0.272 0.307,-0.275 0.331,-0.275C0.391,-0.275 0.451,-0.255 0.498,-0.219Z" style="fill:url(#_Linear1);fill-rule:nonzero;"></path> </g> </g> </g> </g> <defs> <linearGradient id="_Linear1" x1="0" y1="0" x2="1" y2="0" gradientUnits="userSpaceOnUse" gradientTransform="matrix(1,0,0,-1,0,-8.88178e-16)"><stop offset="0" style="stop-color:rgb(21,225,245);stop-opacity:1"></stop><stop offset="0.28" style="stop-color:rgb(21,225,245);stop-opacity:1"></stop><stop offset="0.79" style="stop-color:rgb(0,86,254);stop-opacity:1"></stop><stop offset="1" style="stop-color:rgb(24,49,131);stop-opacity:1"></stop></linearGradient> </defs> </svg> 